<svg width="22" height="22" viewBox="0 0 22 22" fill="none" xmlns="http://www.w3.org/2000/svg">
<path d="M8.35092 9.22852C7.66503 9.22852 7.12354 9.77869 7.12354 10.4499C7.12354 11.1211 7.67706 11.6713 8.35092 11.6713C9.03681 11.6713 9.57831 11.1211 9.57831 10.4499C9.59034 9.77869 9.03681 9.22852 8.35092 9.22852ZM12.743 9.22852C12.0571 9.22852 11.5156 9.77869 11.5156 10.4499C11.5156 11.1211 12.0692 11.6713 12.743 11.6713C13.4289 11.6713 13.9704 11.1211 13.9704 10.4499C13.9704 9.77869 13.4289 9.22852 12.743 9.22852Z" fill="black"/>
<path d="M18.5913 0H2.4668C1.10705 0 0 1.012 0 2.266V17.138C0 18.392 1.10705 19.404 2.4668 19.404H16.1124L15.4747 17.369L17.0149 18.678L18.4709 19.91L21.0581 22V2.266C21.0581 1.012 19.951 0 18.5913 0ZM13.9465 14.366C13.9465 14.366 13.5133 13.893 13.1523 13.475C14.7286 13.068 15.3303 12.166 15.3303 12.166C14.8369 12.463 14.3676 12.672 13.9465 12.815C13.3448 13.046 12.7672 13.2 12.2016 13.288C11.1711 13.4615 10.1141 13.4577 9.08505 13.277C8.48089 13.1689 7.8888 13.0106 7.31617 12.804C7.01433 12.6979 6.72083 12.5729 6.43775 12.43C6.40165 12.408 6.36555 12.397 6.32945 12.375C6.30539 12.364 6.29335 12.353 6.28132 12.342C6.06472 12.232 5.94439 12.155 5.94439 12.155C5.94439 12.155 6.52199 13.035 8.0502 13.453C7.6892 13.871 7.24398 14.366 7.24398 14.366C4.58464 14.289 3.57386 12.694 3.57386 12.694C3.57386 9.152 5.30663 6.281 5.30663 6.281C7.03941 5.093 8.68796 5.126 8.68796 5.126L8.80829 5.258C6.64232 5.83 5.64356 6.699 5.64356 6.699C5.64356 6.699 5.90829 6.567 6.35352 6.38C7.64107 5.863 8.66389 5.72 9.08505 5.687C9.15725 5.676 9.21742 5.665 9.28962 5.665C11.3763 5.40682 13.4985 5.76936 15.3423 6.699C15.3423 6.699 14.3917 5.874 12.346 5.302L12.5145 5.126C12.5145 5.126 14.1631 5.093 15.8958 6.281C15.8958 6.281 17.6286 9.152 17.6286 12.694C17.6286 12.694 16.6058 14.289 13.9465 14.366Z" fill="black"/>
</svg>
