<svg width="20" height="18" viewBox="0 0 20 18" fill="none" xmlns="http://www.w3.org/2000/svg">
<path d="M20 2.79874C19.2562 3.125 18.4638 3.34124 17.6374 3.44624C18.4876 2.93874 19.1362 2.14124 19.4412 1.18C18.6488 1.6525 17.7738 1.98626 16.8412 2.1725C16.0888 1.37126 15.0162 0.875 13.8462 0.875C11.5762 0.875 9.74874 2.7175 9.74874 4.97626C9.74874 5.30126 9.77625 5.61374 9.84376 5.91124C6.435 5.745 3.41874 4.11126 1.3925 1.6225C1.03875 2.23626 0.83125 2.93876 0.83125 3.695C0.83125 5.115 1.5625 6.37374 2.6525 7.1025C1.99374 7.09 1.3475 6.89876 0.8 6.5975C0.8 6.61 0.8 6.62626 0.8 6.6425C0.8 8.635 2.22124 10.29 4.085 10.6712C3.75124 10.7626 3.3875 10.8062 3.01 10.8062C2.7475 10.8062 2.4825 10.7912 2.23376 10.7362C2.765 12.36 4.2725 13.5538 6.065 13.5924C4.67 14.6838 2.89876 15.3412 0.98125 15.3412C0.645 15.3412 0.3225 15.3262 0 15.285C1.81624 16.4562 3.96876 17.125 6.29 17.125C13.835 17.125 17.96 10.875 17.96 5.4575C17.96 5.27624 17.9538 5.10126 17.945 4.9275C18.7588 4.35 19.4424 3.62874 20 2.79874Z" fill="black"/>
</svg>
