<svg width="20" height="20" viewBox="0 0 20 20" fill="none" xmlns="http://www.w3.org/2000/svg">
<path d="M18.9244 13.0542C18.9384 13.022 18.9501 12.9889 18.9594 12.9551C19.6805 10.8806 19.6802 8.62336 18.9584 6.54907C18.9494 6.51686 18.9383 6.48529 18.9251 6.45457C18.2441 4.56752 16.9984 2.93597 15.3575 1.78175C13.7166 0.627518 11.7601 0.00660928 9.75394 0.00343412L9.75 0L9.74606 0.00343412C7.74007 0.00660482 5.78371 0.627393 4.14291 1.78142C2.50211 2.93544 1.25646 4.56671 0.575272 6.45351C0.561652 6.48501 0.550226 6.51742 0.541076 6.5505C-0.180782 8.62605 -0.180347 10.8846 0.542313 12.9599C0.551034 12.9908 0.561737 13.0211 0.574355 13.0506C1.25514 14.938 2.50074 16.57 4.14174 17.7245C5.78274 18.8791 7.73952 19.5001 9.74597 19.5033L9.75 19.5069L9.75403 19.5033C11.7598 19.5002 13.716 18.8795 15.3567 17.7256C16.9974 16.5718 18.2431 14.9407 18.9244 13.0542ZM9.75 2.02451C10.8386 3.15251 11.6567 4.51302 12.1427 6.00339H7.35727C7.84326 4.51302 8.66142 3.15251 9.75 2.02451ZM7.35731 13.5034H12.1427C11.6567 14.9937 10.8386 16.3543 9.75 17.4823C8.66145 16.3543 7.84331 14.9937 7.35731 13.5034ZM6.96464 12.0034C6.67845 10.517 6.67845 8.98974 6.96464 7.50339H12.5354C12.8215 8.98974 12.8215 10.517 12.5354 12.0034H6.96464ZM14.0652 7.50339H17.6881C18.104 8.97457 18.104 10.5322 17.6881 12.0034H14.0652C14.3116 10.5135 14.3116 8.99326 14.0652 7.50339ZM17.0974 6.00339H13.7257C13.2767 4.42295 12.5065 2.95211 11.4633 1.6828C12.664 1.94009 13.7925 2.46126 14.7669 3.20853C15.7414 3.95581 16.5374 4.91048 17.0974 6.00339H17.0974ZM11.4632 17.824C12.5064 16.5547 13.2766 15.0838 13.7257 13.5034H17.0974C16.5374 14.5963 15.7414 15.551 14.7669 16.2983C13.7925 17.0455 12.664 17.5667 11.4632 17.824Z" fill="black"/>
</svg>
