<svg width="49" height="32" viewBox="0 0 49 32" fill="none" xmlns="http://www.w3.org/2000/svg">
<path fill-rule="evenodd" clip-rule="evenodd" d="M28.1416 0.533511C32.1009 1.65724 33.6415 3.27998 34.108 6.81823L34.2941 8.22826H32.2782H30.2623L30.0726 7.08681C29.5922 4.1953 28.6403 3.7081 22.6948 3.31087C17.0746 2.93567 9.25438 3.3713 7.09448 4.18053C6.26941 4.48939 5.33986 5.01312 5.02912 5.34401C4.30745 6.11214 3.81434 8.29648 4.04639 9.6955C4.35767 11.5707 4.82527 12.1629 6.50925 12.8156C7.9507 13.3742 8.65814 13.4293 16.7861 13.6138C21.5869 13.7226 26.2333 13.956 27.1113 14.1319C29.7571 14.6623 31.4411 15.42 32.4447 16.5305C33.7446 17.9696 34.0887 19.1943 34.0857 22.3732C34.0833 24.8669 34.0143 25.2376 33.2905 26.6462C31.896 29.36 29.1509 30.7133 23.771 31.3388C19.8769 31.7914 8.39843 31.5314 6.04676 30.937C2.1078 29.9417 0.32498 27.9709 0.081111 24.3429L0 23.1343L1.92167 23.0559L3.84335 22.9775L4.03484 24.1302C4.33807 25.9536 4.88301 26.7502 6.2635 27.3864C7.43423 27.926 8.01812 27.9719 14.7943 28.0563C24.8735 28.182 27.8424 27.6545 29.3096 25.4769C30.4758 23.7464 30.3318 19.9479 29.0542 18.7479C27.6802 17.4569 26.5948 17.3011 17.4576 17.0825C8.19431 16.8609 5.76368 16.5673 3.45095 15.3902C0.881203 14.0822 0.0671438 12.536 0.0346459 8.89971C0.00913105 6.04016 0.381649 4.79047 1.69258 3.33934C2.8061 2.10684 3.93896 1.48078 6.17729 0.860635C8.99225 0.0809539 11.0939 -0.0578972 18.9347 0.0183789C25.0508 0.0777346 26.9013 0.181137 28.1416 0.533511ZM47.2885 12.6474C49.5762 14.1464 49.569 17.8922 47.2759 19.3949C44.1504 21.4426 39.9858 18.5529 40.9425 15.0004C41.2801 13.7465 42.6595 12.3789 43.9125 12.0558C44.9946 11.7767 46.3119 12.0074 47.2885 12.6474Z" fill="white"/>
</svg>
